<svg xmlns="http://www.w3.org/2000/svg" width="196.978" height="30.302" viewBox="0 0 196.978 30.302"><defs><style>.a{fill:#fff;}</style></defs><path class="a" d="M216.11,52.6h16.742a5.951,5.951,0,0,1,1.8,3.924H214.519a9.36,9.36,0,0,0,0,3.926H210.23a18.74,18.74,0,0,1-.141-1.933,14.967,14.967,0,0,1,8.3-13.188,17.193,17.193,0,0,1-3.528-2.509,14.623,14.623,0,0,1-4.775-10.678,18.533,18.533,0,0,1,.141-1.995h4.289a9.31,9.31,0,0,0-.208,1.995,10.865,10.865,0,0,0,3.528,7.913,12.548,12.548,0,0,0,8.027,3.28h1.107a12.2,12.2,0,0,0,7.955-3.28A8.993,8.993,0,0,0,236.73,38H226.419V34.073H242.54a14.391,14.391,0,0,1-4.635,8.749,18.838,18.838,0,0,1-3.461,2.509,15.946,15.946,0,0,1,3.461,2.44,14.634,14.634,0,0,1,4.772,10.748,9.2,9.2,0,0,1-.137,1.933h-4.221a9.227,9.227,0,0,0,.208-1.933,10.787,10.787,0,0,0-3.6-7.975,12.159,12.159,0,0,0-7.955-3.283h-1.107a12.509,12.509,0,0,0-8.027,3.283A15.929,15.929,0,0,0,216.11,52.6" transform="translate(-210.089 -30.149)"/><rect class="a" width="3.661" height="24.51" transform="translate(162.802 5.275)"/><path class="a" d="M342.879,59.348,359.9,36.767l-3.048-1.929-18.468,24.51Z" transform="translate(-194.056 -29.563)"/><rect class="a" width="12.73" height="3.407" transform="translate(151.451 21.361)"/><rect class="a" width="3.666" height="24.51" transform="translate(168.957 5.275)"/><path class="a" d="M365.626,34.838v24.51h8.721a25.258,25.258,0,0,0,4.908-.386,11.618,11.618,0,0,0,3.185-1.414,11.453,11.453,0,0,0,3.873-4.313,13.739,13.739,0,0,0,1.317-5.984,14.688,14.688,0,0,0-.972-5.464,11.071,11.071,0,0,0-2.769-4.054,12.057,12.057,0,0,0-3.869-2.256,22.454,22.454,0,0,0-5.882-.639ZM374,56.582h-4.635V37.6h4.568a10.161,10.161,0,0,1,7.261,2.511,9.022,9.022,0,0,1,2.633,6.944c0,2.511-.489,5.274-2.423,7.144S376.627,56.582,374,56.582Z" transform="translate(-190.652 -29.563)"/><path class="a" d="M255.87,45.438v5.02h7.887c-.692,2.379-2.974,3.924-6.291,3.924a7.238,7.238,0,0,1-.075-14.475,6.476,6.476,0,0,1,5.814,3.216h7.611c-1.522-4.762-6.921-8.685-13.215-8.685-7.75,0-14.116,5.274-14.116,12.609,0,7.077,6.02,12.866,13.981,12.866,7.328,0,14.108-4.952,14.108-13.188a8.218,8.218,0,0,0-.067-1.287Z" transform="translate(-205.916 -29.613)"/><path class="a" d="M270.6,42.222a13.37,13.37,0,0,0-1.037,5.212c0,6.305,5.534,12.414,13.837,12.414,8.231,0,13.975-5.853,13.975-12.676,0-6.88-5.814-12.738-13.907-12.738-7.4,0-11.483,4.572-12.868,7.788m5.672,4.888a7.085,7.085,0,0,1,7.2-7.2,7.236,7.236,0,1,1-7.2,7.2Z" transform="translate(-202.657 -29.614)"/><path class="a" d="M296.064,42.222a13.356,13.356,0,0,0-1.041,5.212c0,6.305,5.534,12.414,13.839,12.414,8.231,0,13.975-5.853,13.975-12.676,0-6.88-5.817-12.738-13.906-12.738-7.4,0-11.486,4.572-12.869,7.788m5.672,4.888A7.2,7.2,0,1,1,309,54.38,7.084,7.084,0,0,1,301.736,47.11Z" transform="translate(-199.475 -29.614)"/><path class="a" d="M321.1,59.35h9.271c10.028,0,13.559-5.6,13.559-12.29a12.064,12.064,0,0,0-2.419-7.654c-3.389-4.57-8.723-4.57-11.625-4.57H321.1Zm6.78-18.979h2.9c2.977,0,4.356,1.158,5.121,2.249a7.906,7.906,0,0,1,1.313,4.5c0,3.475-1.453,6.758-6.434,6.758h-2.9Z" transform="translate(-196.216 -29.563)"/></svg>