<?xml version="1.0" encoding="UTF-8"?>
<svg id="Layer_1" data-name="Layer 1" xmlns="http://www.w3.org/2000/svg" viewBox="0 0 429.29 235">
  <g id="Layer_2" data-name="Layer 2">
    <g id="Layer_1-2" data-name="Layer 1-2">
      <path d="M42.48,132.1h31.17c2.02,2.16,3.21,4.96,3.34,7.92h-37.47c-.26,1.3-.39,2.63-.4,3.96,0,1.3.14,2.59.4,3.86h-7.92c-.2-1.31-.34-2.59-.34-3.88.04-8.06,3.23-15.78,8.89-21.51,1.93-1.95,4.15-3.6,6.57-4.89-2.4-1.38-4.61-3.07-6.57-5.03-5.69-5.68-8.88-13.38-8.89-21.42,0-1.39.14-2.67.26-3.96h7.92c-.22,1.31-.3,2.63-.26,3.96,0,12.02,9.45,21.9,21.46,22.44h1.98c5.63-.2,10.96-2.56,14.88-6.61,1.33-1.19,2.47-2.58,3.36-4.12h-19.2v-7.76h30.01c-.8,6.65-3.84,12.83-8.63,17.52-1.94,1.93-4.1,3.61-6.43,5.03,2.36,1.33,4.52,2.97,6.43,4.89,5.7,5.69,8.89,13.41,8.89,21.46.04,1.29-.04,2.58-.26,3.86h-7.92c.26-1.27.39-2.56.4-3.86,0-6.01-2.41-11.77-6.71-15.97-3.91-4-9.21-6.35-14.8-6.57h-1.98c-5.63.25-10.96,2.59-14.94,6.57-1.19,1.28-2.27,2.66-3.25,4.12Z" fill="#2d3843" stroke-width="0"/>
      <rect x="334.38" y="97.72" width="6.83" height="49.09" fill="#2d3843" stroke-width="0"/>
      <polygon points="308.35 146.79 340.04 101.58 334.38 97.72 299.98 146.79 308.35 146.79" fill="#2d3843" stroke-width="0"/>
      <rect x="313.26" y="129.93" width="23.71" height="6.83" fill="#2d3843" stroke-width="0"/>
      <rect x="345.84" y="97.72" width="6.83" height="49.09" fill="#2d3843" stroke-width="0"/>
      <path d="M357.04,97.72v49.07h16.23c3.07.07,6.13-.19,9.14-.77,2.12-.62,4.12-1.57,5.94-2.83,3.09-2.19,5.56-5.12,7.2-8.53,1.65-3.77,2.49-7.85,2.45-11.97.05-3.73-.56-7.43-1.8-10.95-1.11-3.05-2.86-5.82-5.15-8.11-2.08-1.99-4.54-3.55-7.22-4.59-3.57-.95-7.25-1.38-10.95-1.29l-15.85-.02ZM372.63,141.27h-8.63v-38h8.49c5.01-.27,9.91,1.54,13.54,5.01,3.42,3.77,5.19,8.77,4.89,13.85,0,5.03-.91,10.57-4.51,14.31-3.6,3.74-8.89,4.81-13.78,4.81v.02Z" fill="#2d3843" stroke-width="0"/>
      <path d="M124.3,118.82v10.05h14.69c-1.29,4.75-5.54,7.92-11.72,7.92s-13.54-4.39-13.54-14.69c-.44-7.45,5.25-13.85,12.7-14.29.23-.01.46-.02.7-.02,4.55-.1,8.75,2.41,10.83,6.45h14.17c-2.83-9.54-12.88-17.4-24.6-17.4-14.43,0-26.28,10.57-26.28,25.26,0,14.21,11.52,25.73,25.73,25.73.1,0,.2,0,.3,0,14.21.29,25.96-10.99,26.25-25.2,0-.41,0-.81,0-1.22.02-.87-.02-1.73-.12-2.59h-29.09Z" fill="#2d3843" stroke-width="0"/>
      <path d="M157.77,112.41c-1.3,3.32-1.97,6.86-1.98,10.43.33,14,11.94,25.08,25.94,24.75,14-.33,25.08-11.94,24.75-25.94-.33-14-11.94-25.08-25.94-24.75-9.98.23-18.9,6.31-22.77,15.51ZM168.34,122.19c0-6.95,4.77-14.43,13.4-14.43s13.4,8.25,13.4,14.57-4.39,14.43-13.28,14.43c-8.37,0-13.52-7.09-13.52-14.57Z" fill="#2d3843" stroke-width="0"/>
      <path d="M211.11,112.41c-1.31,3.32-1.98,6.86-1.98,10.43.33,14,11.94,25.08,25.94,24.75,14-.33,25.08-11.94,24.75-25.94-.33-14-11.94-25.08-25.94-24.75-9.98.23-18.9,6.31-22.77,15.51ZM221.66,122.19c0-6.95,4.77-14.43,13.4-14.43,9.14,0,13.4,8.25,13.4,14.57s-4.26,14.43-13.26,14.43c-8.37,0-13.54-7.09-13.54-14.57Z" fill="#2d3843" stroke-width="0"/>
      <path d="M263.78,146.79h17.26c18.68,0,25.26-11.2,25.26-24.6.17-5.43-1.41-10.78-4.51-15.24-6.31-9.14-16.23-9.14-21.63-9.14h-16.37v48.99ZM276.4,108.79h5.42c5.52,0,8.11,2.34,9.52,4.51,1.66,2.72,2.51,5.85,2.45,9.03,0,6.95-2.71,13.52-11.88,13.52h-5.42l-.1-27.06Z" fill="#2d3843" stroke-width="0"/>
    </g>
  </g>
</svg>